<?xml version="1.0" encoding="UTF-8" ?>
<svg version="1.1" width="32" height="32" xmlns="http://www.w3.org/2000/svg" shape-rendering="crispEdges" class="nav-icon smiley">
<rect x="6" y="0" width="1" height="1" fill="#1B1B1B" />
<rect x="7" y="0" width="1" height="1" fill="#1B1B1B" />
<rect x="8" y="0" width="1" height="1" fill="#1B1B1B" />
<rect x="9" y="0" width="1" height="1" fill="#1B1B1B" />
<rect x="10" y="0" width="1" height="1" fill="#1B1B1B" />
<rect x="11" y="0" width="1" height="1" fill="#1B1B1B" />
<rect x="12" y="0" width="1" height="1" fill="#1B1B1B" />
<rect x="13" y="0" width="1" height="1" fill="#1B1B1B" />
<rect x="14" y="0" width="1" height="1" fill="#1B1B1B" />
<rect x="15" y="0" width="1" height="1" fill="#1B1B1B" />
<rect x="16" y="0" width="1" height="1" fill="#1B1B1B" />
<rect x="17" y="0" width="1" height="1" fill="#1B1B1B" />
<rect x="18" y="0" width="1" height="1" fill="#1B1B1B" />
<rect x="19" y="0" width="1" height="1" fill="#1B1B1B" />
<rect x="20" y="0" width="1" height="1" fill="#1B1B1B" />
<rect x="21" y="0" width="1" height="1" fill="#1B1B1B" />
<rect x="22" y="0" width="1" height="1" fill="#1B1B1B" />
<rect x="23" y="0" width="1" height="1" fill="#1B1B1B" />
<rect x="24" y="0" width="1" height="1" fill="#1B1B1B" />
<rect x="25" y="0" width="1" height="1" fill="#1B1B1B" />
<rect x="26" y="0" width="1" height="1" fill="#1B1B1B" />
<rect x="27" y="0" width="1" height="1" fill="#1B1B1B" />
<rect x="28" y="0" width="1" height="1" fill="#1B1B1B" />
<rect x="29" y="0" width="1" height="1" fill="#1B1B1B" />
<rect x="6" y="1" width="1" height="1" fill="#1B1B1B" />
<rect x="7" y="1" width="1" height="1" fill="#1B1B1B" />
<rect x="8" y="1" width="1" height="1" fill="#1B1B1B" />
<rect x="9" y="1" width="1" height="1" fill="#1B1B1B" />
<rect x="10" y="1" width="1" height="1" fill="#1B1B1B" />
<rect x="11" y="1" width="1" height="1" fill="#1B1B1B" />
<rect x="12" y="1" width="1" height="1" fill="#1B1B1B" />
<rect x="13" y="1" width="1" height="1" fill="#1B1B1B" />
<rect x="14" y="1" width="1" height="1" fill="#1B1B1B" />
<rect x="15" y="1" width="1" height="1" fill="#1B1B1B" />
<rect x="16" y="1" width="1" height="1" fill="#1B1B1B" />
<rect x="17" y="1" width="1" height="1" fill="#1B1B1B" />
<rect x="18" y="1" width="1" height="1" fill="#1B1B1B" />
<rect x="19" y="1" width="1" height="1" fill="#1B1B1B" />
<rect x="20" y="1" width="1" height="1" fill="#1B1B1B" />
<rect x="21" y="1" width="1" height="1" fill="#1B1B1B" />
<rect x="22" y="1" width="1" height="1" fill="#1B1B1B" />
<rect x="23" y="1" width="1" height="1" fill="#1B1B1B" />
<rect x="24" y="1" width="1" height="1" fill="#1B1B1B" />
<rect x="25" y="1" width="1" height="1" fill="#1B1B1B" />
<rect x="26" y="1" width="1" height="1" fill="#1B1B1B" />
<rect x="27" y="1" width="1" height="1" fill="#1B1B1B" />
<rect x="28" y="1" width="1" height="1" fill="#1B1B1B" />
<rect x="29" y="1" width="1" height="1" fill="#1B1B1B" />
<rect x="4" y="2" width="1" height="1" fill="#1B1B1B" />
<rect x="5" y="2" width="1" height="1" fill="#1B1B1B" />
<rect x="8" y="2" width="1" height="1" fill="#1B1B1B" />
<rect x="9" y="2" width="1" height="1" fill="#1B1B1B" />
<rect x="28" y="2" width="1" height="1" fill="#1B1B1B" />
<rect x="29" y="2" width="1" height="1" fill="#1B1B1B" />
<rect x="4" y="3" width="1" height="1" fill="#1B1B1B" />
<rect x="5" y="3" width="1" height="1" fill="#1B1B1B" />
<rect x="8" y="3" width="1" height="1" fill="#1B1B1B" />
<rect x="9" y="3" width="1" height="1" fill="#1B1B1B" />
<rect x="28" y="3" width="1" height="1" fill="#1B1B1B" />
<rect x="29" y="3" width="1" height="1" fill="#1B1B1B" />
<rect x="2" y="4" width="1" height="1" fill="#1B1B1B" />
<rect x="3" y="4" width="1" height="1" fill="#1B1B1B" />
<rect x="8" y="4" width="1" height="1" fill="#1B1B1B" />
<rect x="9" y="4" width="1" height="1" fill="#1B1B1B" />
<rect x="28" y="4" width="1" height="1" fill="#1B1B1B" />
<rect x="29" y="4" width="1" height="1" fill="#1B1B1B" />
<rect x="2" y="5" width="1" height="1" fill="#1B1B1B" />
<rect x="3" y="5" width="1" height="1" fill="#1B1B1B" />
<rect x="8" y="5" width="1" height="1" fill="#1B1B1B" />
<rect x="9" y="5" width="1" height="1" fill="#1B1B1B" />
<rect x="28" y="5" width="1" height="1" fill="#1B1B1B" />
<rect x="29" y="5" width="1" height="1" fill="#1B1B1B" />
<rect x="2" y="6" width="1" height="1" fill="#1B1B1B" />
<rect x="3" y="6" width="1" height="1" fill="#1B1B1B" />
<rect x="4" y="6" width="1" height="1" fill="#1B1B1B" />
<rect x="5" y="6" width="1" height="1" fill="#1B1B1B" />
<rect x="6" y="6" width="1" height="1" fill="#1B1B1B" />
<rect x="7" y="6" width="1" height="1" fill="#1B1B1B" />
<rect x="8" y="6" width="1" height="1" fill="#1B1B1B" />
<rect x="9" y="6" width="1" height="1" fill="#1B1B1B" />
<rect x="28" y="6" width="1" height="1" fill="#1B1B1B" />
<rect x="29" y="6" width="1" height="1" fill="#1B1B1B" />
<rect x="2" y="7" width="1" height="1" fill="#1B1B1B" />
<rect x="3" y="7" width="1" height="1" fill="#1B1B1B" />
<rect x="4" y="7" width="1" height="1" fill="#1B1B1B" />
<rect x="5" y="7" width="1" height="1" fill="#1B1B1B" />
<rect x="6" y="7" width="1" height="1" fill="#1B1B1B" />
<rect x="7" y="7" width="1" height="1" fill="#1B1B1B" />
<rect x="8" y="7" width="1" height="1" fill="#1B1B1B" />
<rect x="9" y="7" width="1" height="1" fill="#1B1B1B" />
<rect x="28" y="7" width="1" height="1" fill="#1B1B1B" />
<rect x="29" y="7" width="1" height="1" fill="#1B1B1B" />
<rect x="2" y="8" width="1" height="1" fill="#1B1B1B" />
<rect x="3" y="8" width="1" height="1" fill="#1B1B1B" />
<rect x="28" y="8" width="1" height="1" fill="#1B1B1B" />
<rect x="29" y="8" width="1" height="1" fill="#1B1B1B" />
<rect x="2" y="9" width="1" height="1" fill="#1B1B1B" />
<rect x="3" y="9" width="1" height="1" fill="#1B1B1B" />
<rect x="28" y="9" width="1" height="1" fill="#1B1B1B" />
<rect x="29" y="9" width="1" height="1" fill="#1B1B1B" />
<rect x="2" y="10" width="1" height="1" fill="#1B1B1B" />
<rect x="3" y="10" width="1" height="1" fill="#1B1B1B" />
<rect x="28" y="10" width="1" height="1" fill="#1B1B1B" />
<rect x="29" y="10" width="1" height="1" fill="#1B1B1B" />
<rect x="2" y="11" width="1" height="1" fill="#1B1B1B" />
<rect x="3" y="11" width="1" height="1" fill="#1B1B1B" />
<rect x="28" y="11" width="1" height="1" fill="#1B1B1B" />
<rect x="29" y="11" width="1" height="1" fill="#1B1B1B" />
<rect x="2" y="12" width="1" height="1" fill="#1B1B1B" />
<rect x="3" y="12" width="1" height="1" fill="#1B1B1B" />
<rect x="6" y="12" width="1" height="1" fill="#1B1B1B" />
<rect x="7" y="12" width="1" height="1" fill="#1B1B1B" />
<rect x="8" y="12" width="1" height="1" fill="#1B1B1B" />
<rect x="9" y="12" width="1" height="1" fill="#1B1B1B" />
<rect x="10" y="12" width="1" height="1" fill="#1B1B1B" />
<rect x="11" y="12" width="1" height="1" fill="#1B1B1B" />
<rect x="12" y="12" width="1" height="1" fill="#1B1B1B" />
<rect x="13" y="12" width="1" height="1" fill="#1B1B1B" />
<rect x="14" y="12" width="1" height="1" fill="#1B1B1B" />
<rect x="15" y="12" width="1" height="1" fill="#1B1B1B" />
<rect x="16" y="12" width="1" height="1" fill="#1B1B1B" />
<rect x="17" y="12" width="1" height="1" fill="#1B1B1B" />
<rect x="18" y="12" width="1" height="1" fill="#1B1B1B" />
<rect x="19" y="12" width="1" height="1" fill="#1B1B1B" />
<rect x="20" y="12" width="1" height="1" fill="#1B1B1B" />
<rect x="21" y="12" width="1" height="1" fill="#1B1B1B" />
<rect x="22" y="12" width="1" height="1" fill="#1B1B1B" />
<rect x="23" y="12" width="1" height="1" fill="#1B1B1B" />
<rect x="24" y="12" width="1" height="1" fill="#1B1B1B" />
<rect x="25" y="12" width="1" height="1" fill="#1B1B1B" />
<rect x="28" y="12" width="1" height="1" fill="#1B1B1B" />
<rect x="29" y="12" width="1" height="1" fill="#1B1B1B" />
<rect x="2" y="13" width="1" height="1" fill="#1B1B1B" />
<rect x="3" y="13" width="1" height="1" fill="#1B1B1B" />
<rect x="6" y="13" width="1" height="1" fill="#1B1B1B" />
<rect x="7" y="13" width="1" height="1" fill="#1B1B1B" />
<rect x="8" y="13" width="1" height="1" fill="#1B1B1B" />
<rect x="9" y="13" width="1" height="1" fill="#1B1B1B" />
<rect x="10" y="13" width="1" height="1" fill="#1B1B1B" />
<rect x="11" y="13" width="1" height="1" fill="#1B1B1B" />
<rect x="12" y="13" width="1" height="1" fill="#1B1B1B" />
<rect x="13" y="13" width="1" height="1" fill="#1B1B1B" />
<rect x="14" y="13" width="1" height="1" fill="#1B1B1B" />
<rect x="15" y="13" width="1" height="1" fill="#1B1B1B" />
<rect x="16" y="13" width="1" height="1" fill="#1B1B1B" />
<rect x="17" y="13" width="1" height="1" fill="#1B1B1B" />
<rect x="18" y="13" width="1" height="1" fill="#1B1B1B" />
<rect x="19" y="13" width="1" height="1" fill="#1B1B1B" />
<rect x="20" y="13" width="1" height="1" fill="#1B1B1B" />
<rect x="21" y="13" width="1" height="1" fill="#1B1B1B" />
<rect x="22" y="13" width="1" height="1" fill="#1B1B1B" />
<rect x="23" y="13" width="1" height="1" fill="#1B1B1B" />
<rect x="24" y="13" width="1" height="1" fill="#1B1B1B" />
<rect x="25" y="13" width="1" height="1" fill="#1B1B1B" />
<rect x="28" y="13" width="1" height="1" fill="#1B1B1B" />
<rect x="29" y="13" width="1" height="1" fill="#1B1B1B" />
<rect x="2" y="14" width="1" height="1" fill="#1B1B1B" />
<rect x="3" y="14" width="1" height="1" fill="#1B1B1B" />
<rect x="28" y="14" width="1" height="1" fill="#1B1B1B" />
<rect x="29" y="14" width="1" height="1" fill="#1B1B1B" />
<rect x="2" y="15" width="1" height="1" fill="#1B1B1B" />
<rect x="3" y="15" width="1" height="1" fill="#1B1B1B" />
<rect x="28" y="15" width="1" height="1" fill="#1B1B1B" />
<rect x="29" y="15" width="1" height="1" fill="#1B1B1B" />
<rect x="2" y="16" width="1" height="1" fill="#1B1B1B" />
<rect x="3" y="16" width="1" height="1" fill="#1B1B1B" />
<rect x="6" y="16" width="1" height="1" fill="#1B1B1B" />
<rect x="7" y="16" width="1" height="1" fill="#1B1B1B" />
<rect x="8" y="16" width="1" height="1" fill="#1B1B1B" />
<rect x="9" y="16" width="1" height="1" fill="#1B1B1B" />
<rect x="10" y="16" width="1" height="1" fill="#1B1B1B" />
<rect x="11" y="16" width="1" height="1" fill="#1B1B1B" />
<rect x="12" y="16" width="1" height="1" fill="#1B1B1B" />
<rect x="13" y="16" width="1" height="1" fill="#1B1B1B" />
<rect x="14" y="16" width="1" height="1" fill="#1B1B1B" />
<rect x="15" y="16" width="1" height="1" fill="#1B1B1B" />
<rect x="28" y="16" width="1" height="1" fill="#1B1B1B" />
<rect x="29" y="16" width="1" height="1" fill="#1B1B1B" />
<rect x="2" y="17" width="1" height="1" fill="#1B1B1B" />
<rect x="3" y="17" width="1" height="1" fill="#1B1B1B" />
<rect x="6" y="17" width="1" height="1" fill="#1B1B1B" />
<rect x="7" y="17" width="1" height="1" fill="#1B1B1B" />
<rect x="8" y="17" width="1" height="1" fill="#1B1B1B" />
<rect x="9" y="17" width="1" height="1" fill="#1B1B1B" />
<rect x="10" y="17" width="1" height="1" fill="#1B1B1B" />
<rect x="11" y="17" width="1" height="1" fill="#1B1B1B" />
<rect x="12" y="17" width="1" height="1" fill="#1B1B1B" />
<rect x="13" y="17" width="1" height="1" fill="#1B1B1B" />
<rect x="14" y="17" width="1" height="1" fill="#1B1B1B" />
<rect x="15" y="17" width="1" height="1" fill="#1B1B1B" />
<rect x="28" y="17" width="1" height="1" fill="#1B1B1B" />
<rect x="29" y="17" width="1" height="1" fill="#1B1B1B" />
<rect x="2" y="18" width="1" height="1" fill="#1B1B1B" />
<rect x="3" y="18" width="1" height="1" fill="#1B1B1B" />
<rect x="28" y="18" width="1" height="1" fill="#1B1B1B" />
<rect x="29" y="18" width="1" height="1" fill="#1B1B1B" />
<rect x="2" y="19" width="1" height="1" fill="#1B1B1B" />
<rect x="3" y="19" width="1" height="1" fill="#1B1B1B" />
<rect x="28" y="19" width="1" height="1" fill="#1B1B1B" />
<rect x="29" y="19" width="1" height="1" fill="#1B1B1B" />
<rect x="2" y="20" width="1" height="1" fill="#1B1B1B" />
<rect x="3" y="20" width="1" height="1" fill="#1B1B1B" />
<rect x="28" y="20" width="1" height="1" fill="#1B1B1B" />
<rect x="29" y="20" width="1" height="1" fill="#1B1B1B" />
<rect x="2" y="21" width="1" height="1" fill="#1B1B1B" />
<rect x="3" y="21" width="1" height="1" fill="#1B1B1B" />
<rect x="28" y="21" width="1" height="1" fill="#1B1B1B" />
<rect x="29" y="21" width="1" height="1" fill="#1B1B1B" />
<rect x="2" y="22" width="1" height="1" fill="#1B1B1B" />
<rect x="3" y="22" width="1" height="1" fill="#1B1B1B" />
<rect x="28" y="22" width="1" height="1" fill="#1B1B1B" />
<rect x="29" y="22" width="1" height="1" fill="#1B1B1B" />
<rect x="2" y="23" width="1" height="1" fill="#1B1B1B" />
<rect x="3" y="23" width="1" height="1" fill="#1B1B1B" />
<rect x="28" y="23" width="1" height="1" fill="#1B1B1B" />
<rect x="29" y="23" width="1" height="1" fill="#1B1B1B" />
<rect x="2" y="24" width="1" height="1" fill="#1B1B1B" />
<rect x="3" y="24" width="1" height="1" fill="#1B1B1B" />
<rect x="28" y="24" width="1" height="1" fill="#1B1B1B" />
<rect x="29" y="24" width="1" height="1" fill="#1B1B1B" />
<rect x="2" y="25" width="1" height="1" fill="#1B1B1B" />
<rect x="3" y="25" width="1" height="1" fill="#1B1B1B" />
<rect x="28" y="25" width="1" height="1" fill="#1B1B1B" />
<rect x="29" y="25" width="1" height="1" fill="#1B1B1B" />
<rect x="2" y="26" width="1" height="1" fill="#1B1B1B" />
<rect x="3" y="26" width="1" height="1" fill="#1B1B1B" />
<rect x="28" y="26" width="1" height="1" fill="#1B1B1B" />
<rect x="29" y="26" width="1" height="1" fill="#1B1B1B" />
<rect x="2" y="27" width="1" height="1" fill="#1B1B1B" />
<rect x="3" y="27" width="1" height="1" fill="#1B1B1B" />
<rect x="28" y="27" width="1" height="1" fill="#1B1B1B" />
<rect x="29" y="27" width="1" height="1" fill="#1B1B1B" />
<rect x="2" y="28" width="1" height="1" fill="#1B1B1B" />
<rect x="3" y="28" width="1" height="1" fill="#1B1B1B" />
<rect x="28" y="28" width="1" height="1" fill="#1B1B1B" />
<rect x="29" y="28" width="1" height="1" fill="#1B1B1B" />
<rect x="2" y="29" width="1" height="1" fill="#1B1B1B" />
<rect x="3" y="29" width="1" height="1" fill="#1B1B1B" />
<rect x="28" y="29" width="1" height="1" fill="#1B1B1B" />
<rect x="29" y="29" width="1" height="1" fill="#1B1B1B" />
<rect x="2" y="30" width="1" height="1" fill="#1B1B1B" />
<rect x="3" y="30" width="1" height="1" fill="#1B1B1B" />
<rect x="4" y="30" width="1" height="1" fill="#1B1B1B" />
<rect x="5" y="30" width="1" height="1" fill="#1B1B1B" />
<rect x="6" y="30" width="1" height="1" fill="#1B1B1B" />
<rect x="7" y="30" width="1" height="1" fill="#1B1B1B" />
<rect x="8" y="30" width="1" height="1" fill="#1B1B1B" />
<rect x="9" y="30" width="1" height="1" fill="#1B1B1B" />
<rect x="10" y="30" width="1" height="1" fill="#1B1B1B" />
<rect x="11" y="30" width="1" height="1" fill="#1B1B1B" />
<rect x="12" y="30" width="1" height="1" fill="#1B1B1B" />
<rect x="13" y="30" width="1" height="1" fill="#1B1B1B" />
<rect x="14" y="30" width="1" height="1" fill="#1B1B1B" />
<rect x="15" y="30" width="1" height="1" fill="#1B1B1B" />
<rect x="16" y="30" width="1" height="1" fill="#1B1B1B" />
<rect x="17" y="30" width="1" height="1" fill="#1B1B1B" />
<rect x="18" y="30" width="1" height="1" fill="#1B1B1B" />
<rect x="19" y="30" width="1" height="1" fill="#1B1B1B" />
<rect x="20" y="30" width="1" height="1" fill="#1B1B1B" />
<rect x="21" y="30" width="1" height="1" fill="#1B1B1B" />
<rect x="22" y="30" width="1" height="1" fill="#1B1B1B" />
<rect x="23" y="30" width="1" height="1" fill="#1B1B1B" />
<rect x="24" y="30" width="1" height="1" fill="#1B1B1B" />
<rect x="25" y="30" width="1" height="1" fill="#1B1B1B" />
<rect x="26" y="30" width="1" height="1" fill="#1B1B1B" />
<rect x="27" y="30" width="1" height="1" fill="#1B1B1B" />
<rect x="28" y="30" width="1" height="1" fill="#1B1B1B" />
<rect x="29" y="30" width="1" height="1" fill="#1B1B1B" />
<rect x="2" y="31" width="1" height="1" fill="#1B1B1B" />
<rect x="3" y="31" width="1" height="1" fill="#1B1B1B" />
<rect x="4" y="31" width="1" height="1" fill="#1B1B1B" />
<rect x="5" y="31" width="1" height="1" fill="#1B1B1B" />
<rect x="6" y="31" width="1" height="1" fill="#1B1B1B" />
<rect x="7" y="31" width="1" height="1" fill="#1B1B1B" />
<rect x="8" y="31" width="1" height="1" fill="#1B1B1B" />
<rect x="9" y="31" width="1" height="1" fill="#1B1B1B" />
<rect x="10" y="31" width="1" height="1" fill="#1B1B1B" />
<rect x="11" y="31" width="1" height="1" fill="#1B1B1B" />
<rect x="12" y="31" width="1" height="1" fill="#1B1B1B" />
<rect x="13" y="31" width="1" height="1" fill="#1B1B1B" />
<rect x="14" y="31" width="1" height="1" fill="#1B1B1B" />
<rect x="15" y="31" width="1" height="1" fill="#1B1B1B" />
<rect x="16" y="31" width="1" height="1" fill="#1B1B1B" />
<rect x="17" y="31" width="1" height="1" fill="#1B1B1B" />
<rect x="18" y="31" width="1" height="1" fill="#1B1B1B" />
<rect x="19" y="31" width="1" height="1" fill="#1B1B1B" />
<rect x="20" y="31" width="1" height="1" fill="#1B1B1B" />
<rect x="21" y="31" width="1" height="1" fill="#1B1B1B" />
<rect x="22" y="31" width="1" height="1" fill="#1B1B1B" />
<rect x="23" y="31" width="1" height="1" fill="#1B1B1B" />
<rect x="24" y="31" width="1" height="1" fill="#1B1B1B" />
<rect x="25" y="31" width="1" height="1" fill="#1B1B1B" />
<rect x="26" y="31" width="1" height="1" fill="#1B1B1B" />
<rect x="27" y="31" width="1" height="1" fill="#1B1B1B" />
<rect x="28" y="31" width="1" height="1" fill="#1B1B1B" />
<rect x="29" y="31" width="1" height="1" fill="#1B1B1B" />
</svg>